<svg xmlns="http://www.w3.org/2000/svg" xmlns:xlink="http://www.w3.org/1999/xlink" width="500" zoomAndPan="magnify" viewBox="0 0 375 374.999991" height="500" preserveAspectRatio="xMidYMid meet" version="1.0"><defs><clipPath id="528cd0d769"><path d="M 44 167.113281 L 281.441406 167.113281 L 281.441406 371.765625 L 44 371.765625 Z M 44 167.113281 " clip-rule="nonzero"/></clipPath><clipPath id="f72546c216"><path d="M 103 186.175781 L 374.789062 186.175781 L 374.789062 346.671875 L 103 346.671875 Z M 103 186.175781 " clip-rule="nonzero"/></clipPath><clipPath id="a41dcb7a26"><path d="M 93 3.515625 L 331 3.515625 L 331 207 L 93 207 Z M 93 3.515625 " clip-rule="nonzero"/></clipPath></defs><path fill="#80cc28" d="M 29.046875 192.46875 C 34.605469 154.226562 53.410156 118.917969 82 93.042969 C 97.867188 78.683594 116.390625 67.519531 136.402344 60.15625 C 74.214844 74.242188 24.902344 126.1875 15.558594 190.503906 C 5.996094 256.3125 38.113281 319.316406 94.929688 350.359375 C 77.574219 337.527344 62.773438 321.378906 51.511719 302.867188 C 31.46875 269.917969 23.492188 230.710938 29.046875 192.46875 " fill-opacity="1" fill-rule="nonzero"/><g clip-path="url(#528cd0d769)"><path fill="#80cc28" d="M 112.546875 327.382812 C 82.234375 303.453125 61.082031 269.5 52.984375 231.78125 C 48.4375 210.589844 48.082031 188.683594 51.859375 167.421875 C 31.953125 229.0625 51.9375 296.90625 104.105469 338.09375 C 132.003906 360.125 165.492188 371.769531 200.949219 371.769531 C 229.273438 371.769531 257.144531 364.003906 281.300781 349.613281 C 260.582031 358.515625 238.167969 363.160156 215.4375 363.160156 C 177.765625 363.160156 142.1875 350.789062 112.546875 327.382812 " fill-opacity="1" fill-rule="nonzero"/></g><g clip-path="url(#f72546c216)"><path fill="#80cc28" d="M 374.742188 186.433594 C 372.316406 207.890625 365.742188 228.792969 355.351562 247.808594 C 336.859375 281.652344 306.917969 308.171875 271.046875 322.476562 C 251.304688 330.351562 230.613281 334.34375 209.542969 334.34375 C 182.203125 334.34375 154.964844 327.46875 130.769531 314.472656 C 120.875 309.15625 111.589844 302.882812 103.003906 295.726562 C 132.46875 327.726562 174.179688 346.320312 218.199219 346.320312 C 238.027344 346.320312 257.507812 342.5625 276.09375 335.148438 C 337.824219 310.53125 376.285156 251.195312 374.742188 186.433594 " fill-opacity="1" fill-rule="nonzero"/></g><path fill="#80cc28" d="M 325.566406 75.757812 C 344.398438 108.40625 351.484375 145.425781 346.050781 182.816406 C 340.496094 221.058594 321.691406 256.367188 293.101562 282.238281 C 277.039062 296.773438 258.253906 308.039062 237.96875 315.394531 C 301.265625 301.828125 349.980469 250.585938 359.539062 184.78125 C 364.65625 149.582031 357.988281 114.738281 340.257812 84.003906 C 326.097656 59.457031 305.445312 39.1875 280.910156 25.449219 C 298.972656 38.949219 314.199219 56.058594 325.566406 75.757812 " fill-opacity="1" fill-rule="nonzero"/><g clip-path="url(#a41dcb7a26)"><path fill="#80cc28" d="M 262.550781 47.898438 C 279.238281 61.070312 293.039062 77.011719 303.574219 95.273438 C 317.242188 118.964844 324.914062 146.011719 325.765625 173.480469 C 326.113281 184.71875 325.328125 195.898438 323.425781 206.917969 C 336.382812 165.382812 331.621094 119.9375 309.609375 81.78125 C 299.695312 64.59375 286.703125 49.59375 270.996094 37.191406 C 243.097656 15.160156 209.582031 3.515625 174.078125 3.515625 C 145.550781 3.515625 117.546875 11.359375 93.355469 25.890625 C 113.03125 17.367188 134.273438 12.671875 155.785156 12.171875 C 157.058594 12.140625 158.332031 12.125 159.601562 12.125 C 196.773438 12.125 233.335938 24.828125 262.550781 47.898438 " fill-opacity="1" fill-rule="nonzero"/></g><path fill="#80cc28" d="M 165.804688 40.914062 C 183.152344 40.914062 200.28125 43.601562 216.707031 48.902344 C 237.238281 55.53125 256.300781 66.121094 272.765625 79.945312 C 243.371094 47.664062 201.449219 28.894531 157.039062 28.894531 C 137.191406 28.894531 117.714844 32.648438 99.148438 40.050781 C 66.132812 53.21875 39.3125 76.417969 21.582031 107.152344 C 7.421875 131.699219 0.207031 159.734375 0.582031 187.867188 C 3.234375 165.460938 10.425781 143.710938 21.792969 124.011719 C 40.628906 91.363281 69.121094 66.710938 104.195312 52.722656 C 123.847656 44.886719 144.574219 40.914062 165.804688 40.914062 " fill-opacity="1" fill-rule="nonzero"/><path fill="#80cc28" d="M 184.058594 218.460938 C 184.058594 190.933594 187.648438 168.625 187.648438 168.625 C 187.648438 168.625 191.234375 190.933594 191.234375 218.460938 C 191.234375 221.367188 191.191406 224.210938 191.121094 226.980469 C 198.960938 218.570312 217.359375 196.003906 217.359375 169.476562 C 217.359375 135.769531 187.648438 98.332031 187.648438 98.332031 C 187.648438 98.332031 157.933594 135.769531 157.933594 169.476562 C 157.933594 196.003906 176.335938 218.570312 184.171875 226.980469 C 184.101562 224.210938 184.058594 221.367188 184.058594 218.460938 " fill-opacity="1" fill-rule="nonzero"/><path fill="#80cc28" d="M 209.15625 260.164062 C 229.59375 241.746094 248.5625 229.488281 248.5625 229.488281 C 248.5625 229.488281 234.398438 247.085938 213.957031 265.503906 C 211.800781 267.449219 209.660156 269.320312 207.554688 271.121094 C 219.042969 271.324219 248.113281 269.90625 267.8125 252.152344 C 292.839844 229.601562 300.761719 182.453125 300.761719 182.453125 C 300.761719 182.453125 253.078125 185.410156 228.050781 207.960938 C 208.351562 225.710938 203.90625 254.492188 202.90625 265.953125 C 204.914062 264.042969 207 262.109375 209.15625 260.164062 " fill-opacity="1" fill-rule="nonzero"/><path fill="#80cc28" d="M 166.136719 260.164062 C 145.695312 241.746094 126.726562 229.488281 126.726562 229.488281 C 126.726562 229.488281 140.894531 247.085938 161.335938 265.503906 C 163.492188 267.449219 165.632812 269.320312 167.738281 271.121094 C 156.246094 271.324219 127.179688 269.90625 107.480469 252.152344 C 82.453125 229.601562 74.53125 182.453125 74.53125 182.453125 C 74.53125 182.453125 122.210938 185.410156 147.242188 207.960938 C 166.941406 225.710938 171.386719 254.492188 172.386719 265.953125 C 170.378906 264.042969 168.292969 262.109375 166.136719 260.164062 " fill-opacity="1" fill-rule="nonzero"/></svg>