<svg xmlns="http://www.w3.org/2000/svg" xmlns:xlink="http://www.w3.org/1999/xlink" width="500" zoomAndPan="magnify" viewBox="0 0 375 374.999991" height="500" preserveAspectRatio="xMidYMid meet" version="1.0"><defs><clipPath id="53f81d1f4f"><path d="M 67 17.386719 L 298 17.386719 L 298 157 L 67 157 Z M 67 17.386719 " clip-rule="nonzero"/></clipPath><clipPath id="e46361c9c3"><path d="M 192 144 L 375 144 L 375 357.886719 L 192 357.886719 Z M 192 144 " clip-rule="nonzero"/></clipPath></defs><path fill="#5ce1e6" d="M 74.195312 145.378906 C 73.71875 145.4375 73.351562 145.6875 73.128906 146.074219 L 68.949219 153.273438 L 99.363281 170.824219 L 103.542969 163.625 C 103.761719 163.242188 103.722656 162.769531 103.542969 162.324219 C 103.363281 161.882812 103.027344 161.457031 102.519531 161.164062 L 75.726562 145.703125 C 75.222656 145.410156 74.671875 145.316406 74.195312 145.378906 Z M 68.53125 153.96875 L 65.09375 159.957031 L 95.511719 177.511719 L 98.945312 171.519531 Z M 64.675781 160.703125 L 59.011719 170.453125 L 89.425781 188.003906 L 95.089844 178.253906 Z M 56.6875 172.542969 L 20.46875 194.597656 L 20.238281 194.738281 C 20.035156 194.867188 19.828125 194.964844 19.632812 195.109375 C 18.429688 195.996094 17.410156 197.167969 16.613281 198.546875 C 15.0625 201.230469 14.738281 204.269531 15.5 207.042969 L 79.535156 244.007812 C 82.316406 243.277344 84.8125 241.492188 86.363281 238.804688 C 87.15625 237.429688 87.589844 235.925781 87.753906 234.441406 C 87.8125 234.199219 87.8125 233.984375 87.8125 233.746094 L 87.8125 233.464844 L 88.789062 191.070312 L 56.703125 172.542969 Z M 65.558594 186.101562 C 67.054688 185.988281 68.507812 186.246094 69.785156 186.984375 C 74.894531 189.925781 74.15625 198.96875 74.148438 204.863281 C 74.121094 210.753906 74.890625 219.792969 69.785156 222.738281 C 64.675781 225.683594 57.195312 220.535156 52.09375 217.585938 C 46.988281 214.632812 38.765625 210.800781 38.765625 204.90625 C 38.753906 199.011719 46.992188 195.042969 52.09375 192.089844 C 55.917969 189.878906 61.070312 186.441406 65.558594 186.101562 Z M 14.015625 209.644531 L 9.511719 217.398438 L 9.234375 217.957031 L 3.941406 227.519531 C 0.246094 234.230469 -0.0429688 240.007812 1.433594 245.304688 C 2.910156 250.601562 6.285156 255.433594 10.117188 259.5625 C 20.269531 270.503906 37.460938 275.210938 61.519531 275.210938 L 78.054688 246.605469 Z M 4.636719 260.074219 L 36.257812 318.023438 L 42.433594 329.863281 C 43.652344 332.15625 44.839844 334.140625 46.007812 335.996094 L 48.980469 340.359375 C 52.808594 345.382812 56.683594 348.433594 61.378906 350.296875 C 64.910156 351.695312 68.980469 352.441406 73.824219 352.851562 L 94.488281 353.457031 C 105.355469 353.59375 119.730469 354.074219 136.742188 354.664062 C 137.414062 354.703125 137.921875 354.703125 138.601562 354.710938 L 158.289062 355.265625 L 169.621094 354.105469 C 173.738281 354.191406 175.980469 350.75 175.980469 346.628906 C 175.980469 342.511719 173.738281 339.199219 169.621094 339.199219 L 167.019531 338.039062 C 166.15625 338.039062 165.488281 337.371094 165.488281 336.507812 C 165.488281 335.644531 166.15625 334.882812 167.019531 334.882812 L 169.621094 333.765625 C 173.738281 333.765625 175.980469 330.410156 175.980469 326.292969 C 175.980469 322.171875 173.738281 318.863281 169.621094 318.863281 L 167.019531 317.703125 C 166.15625 317.703125 165.488281 317.03125 165.488281 316.167969 L 165.488281 316.074219 C 165.488281 315.210938 166.15625 314.542969 167.019531 314.542969 L 169.621094 313.382812 C 173.738281 313.382812 175.980469 310.070312 175.980469 305.953125 C 175.980469 301.832031 173.738281 298.476562 169.621094 298.476562 L 167.019531 297.363281 C 166.15625 297.363281 165.488281 296.601562 165.488281 295.734375 C 165.488281 294.871094 166.15625 294.203125 167.019531 294.203125 L 169.621094 293.042969 C 173.738281 293.042969 175.980469 289.730469 175.980469 285.613281 C 175.980469 281.496094 173.738281 278.054688 169.621094 278.136719 L 158.242188 276.976562 L 138.367188 277.535156 L 93.746094 278.789062 L 78.097656 279.25 L 76.609375 279.296875 L 67.367188 279.578125 C 63.558594 279.6875 59.902344 279.679688 56.363281 279.578125 C 55.261719 279.550781 54.195312 279.492188 53.113281 279.4375 C 32.570312 278.425781 16.949219 273.449219 6.863281 262.582031 C 6.113281 261.773438 5.355469 260.941406 4.632812 260.074219 Z M 4.636719 260.074219 " fill-opacity="1" fill-rule="nonzero"/><g clip-path="url(#53f81d1f4f)"><path fill="#5ce1e6" d="M 227.355469 17.566406 C 226.179688 17.558594 224.933594 17.566406 223.640625 17.613281 L 210.3125 18.214844 L 144.328125 19.796875 C 145.441406 19.984375 146.507812 20.199219 147.582031 20.445312 C 162.035156 23.746094 174.183594 34.828125 185.332031 52.113281 C 185.921875 53.023438 186.476562 53.910156 187.050781 54.855469 C 188.316406 56.90625 189.613281 59.148438 190.859375 61.355469 C 190.980469 61.582031 191.054688 61.730469 191.183594 61.957031 L 192.578125 64.375 L 192.667969 64.511719 L 207.339844 90.003906 L 271.378906 53.042969 C 270.96875 52.359375 270.511719 51.5625 270.125 50.90625 L 266.921875 45.242188 L 266.550781 44.730469 L 260.933594 35.351562 C 259.667969 33.261719 258.277344 31.550781 256.84375 30.105469 C 254.886719 27.605469 252.925781 25.511719 250.808594 23.835938 C 246.847656 20.699219 242.261719 18.832031 235.996094 18.03125 L 230.75 17.660156 C 229.652344 17.617188 228.535156 17.574219 227.359375 17.566406 Z M 136.109375 23.601562 C 134.007812 23.648438 131.933594 23.878906 129.933594 24.390625 C 126.046875 25.390625 122.382812 27.371094 119.160156 30.894531 C 118.597656 31.640625 118.011719 32.398438 117.445312 33.214844 L 106.578125 50.8125 C 101.027344 60.160156 93.445312 72.363281 84.425781 86.800781 C 84.070312 87.371094 83.8125 87.804688 83.453125 88.378906 L 73.144531 105.144531 L 68.453125 115.546875 C 66.324219 119.070312 68.183594 122.726562 71.75 124.785156 C 75.316406 126.84375 79.304688 126.589844 81.363281 123.019531 L 83.683594 121.347656 C 84.117188 120.601562 85.027344 120.359375 85.773438 120.792969 C 86.523438 121.222656 86.855469 122.179688 86.425781 122.929688 L 86.097656 125.714844 C 84.039062 129.28125 85.824219 132.894531 89.394531 134.957031 C 92.960938 137.015625 96.945312 136.757812 99.007812 133.191406 L 101.28125 131.519531 C 101.714844 130.773438 102.621094 130.53125 103.371094 130.960938 C 103.421875 130.972656 103.429688 130.953125 103.429688 130.960938 C 103.480469 130.972656 103.488281 131 103.488281 131.007812 C 104.234375 131.441406 104.476562 132.351562 104.046875 133.097656 L 103.769531 135.929688 C 101.710938 139.5 103.453125 143.066406 107.019531 145.125 C 110.585938 147.183594 114.617188 146.929688 116.675781 143.359375 L 118.953125 141.6875 C 119.386719 140.941406 120.339844 140.746094 121.089844 141.179688 C 121.835938 141.609375 122.078125 142.519531 121.644531 143.269531 L 121.371094 146.101562 C 119.308594 149.667969 121.054688 153.234375 124.621094 155.296875 C 128.1875 157.355469 132.289062 157.136719 134.277344 153.53125 L 140.964844 144.242188 L 150.4375 126.785156 L 171.660156 87.5 L 179.089844 73.707031 L 179.785156 72.410156 L 184.148438 64.28125 C 184.6875 63.285156 185.234375 62.320312 185.773438 61.355469 C 173.765625 40.589844 161.152344 28.128906 146.628906 24.8125 C 143.199219 24.027344 139.636719 23.53125 136.136719 23.605469 L 136.109375 23.605469 Z M 272.863281 55.597656 L 208.875 92.605469 C 208.113281 95.378906 208.390625 98.417969 209.941406 101.101562 C 210.738281 102.480469 211.847656 103.609375 213.054688 104.492188 C 213.25 104.636719 213.40625 104.734375 213.609375 104.863281 L 213.84375 105.003906 L 250.0625 127.0625 L 282.148438 108.53125 L 281.175781 66.136719 L 281.175781 65.859375 C 281.132812 65.617188 281.234375 65.402344 281.175781 65.164062 C 281.015625 63.675781 280.484375 62.222656 279.6875 60.84375 C 278.136719 58.160156 275.644531 56.324219 272.863281 55.597656 Z M 260.046875 75.933594 C 261.132812 75.980469 262.15625 76.265625 263.113281 76.816406 C 268.21875 79.761719 267.519531 88.894531 267.523438 94.789062 C 267.542969 99.207031 267.941406 105.355469 265.992188 109.414062 C 265.339844 110.769531 264.386719 111.925781 263.113281 112.664062 C 258.007812 115.621094 250.566406 110.464844 245.464844 107.511719 C 240.367188 104.558594 232.136719 100.683594 232.140625 94.789062 C 232.152344 88.890625 240.359375 84.960938 245.464844 82.019531 C 249.296875 79.808594 254.449219 76.339844 258.933594 75.980469 C 259.304688 75.953125 259.683594 75.921875 260.046875 75.933594 Z M 282.800781 111.597656 L 252.433594 129.148438 L 258.003906 138.949219 L 288.417969 121.347656 Z M 288.882812 122.09375 L 258.46875 139.644531 L 261.90625 145.632812 L 292.320312 128.082031 Z M 292.738281 128.777344 L 262.324219 146.332031 L 266.457031 153.574219 C 266.675781 153.960938 267.097656 154.164062 267.570312 154.226562 C 268.046875 154.289062 268.597656 154.195312 269.101562 153.902344 L 295.894531 138.4375 C 296.402344 138.148438 296.78125 137.71875 296.964844 137.277344 C 297.140625 136.835938 297.089844 136.410156 296.871094 136.023438 L 292.738281 128.78125 Z M 292.738281 128.777344 " fill-opacity="1" fill-rule="nonzero"/></g><g clip-path="url(#e46361c9c3)"><path fill="#5ce1e6" d="M 320.082031 144.148438 C 318.734375 144.222656 317.335938 144.675781 315.996094 145.449219 C 312.429688 147.507812 310.6875 151.125 312.746094 154.691406 L 313.023438 157.523438 C 313.457031 158.269531 313.21875 159.179688 312.464844 159.613281 C 311.71875 160.042969 310.714844 159.847656 310.285156 159.101562 L 308.007812 157.382812 C 305.949219 153.816406 301.917969 153.558594 298.351562 155.621094 C 294.785156 157.679688 293.039062 161.292969 295.101562 164.859375 L 295.425781 167.691406 C 295.859375 168.441406 295.621094 169.351562 294.871094 169.78125 C 294.816406 169.792969 294.8125 169.773438 294.8125 169.78125 C 294.757812 169.792969 294.753906 169.824219 294.753906 169.828125 C 294.003906 170.261719 293.09375 170.019531 292.664062 169.273438 L 290.339844 167.601562 C 288.28125 164.035156 284.296875 163.730469 280.730469 165.789062 C 277.160156 167.847656 275.371094 171.464844 277.429688 175.03125 L 277.757812 177.863281 C 278.191406 178.609375 277.859375 179.566406 277.109375 180 C 276.363281 180.429688 275.453125 180.1875 275.019531 179.441406 L 272.746094 177.769531 C 270.683594 174.203125 266.699219 173.898438 263.132812 175.957031 C 259.566406 178.019531 257.707031 181.671875 259.835938 185.199219 L 264.527344 195.648438 L 274.925781 212.550781 L 298.328125 250.582031 L 306.550781 263.90625 L 307.339844 265.160156 L 312.214844 273.054688 C 312.820312 274.035156 313.359375 274.96875 313.933594 275.933594 C 337.816406 275.886719 354.859375 271.175781 364.964844 260.285156 C 368.796875 256.15625 372.171875 251.328125 373.648438 246.027344 C 374.933594 241.421875 374.910156 236.429688 372.441406 230.796875 L 372.382812 230.707031 L 366.484375 219.839844 L 365.554688 218.121094 L 362.585938 212.59375 C 357.265625 203.117188 350.519531 190.429688 342.523438 175.402344 C 342.210938 174.808594 341.960938 174.375 341.640625 173.777344 L 332.261719 156.457031 L 325.621094 147.214844 C 324.378906 144.960938 322.296875 144.03125 320.050781 144.148438 L 320.085938 144.148438 Z M 370.652344 260.792969 C 369.933594 261.660156 369.171875 262.496094 368.421875 263.300781 C 358.335938 274.171875 342.71875 279.144531 322.171875 280.15625 C 321.089844 280.214844 320.027344 280.269531 318.921875 280.296875 C 316.511719 280.363281 313.886719 280.324219 311.355469 280.296875 C 311.09375 280.289062 310.96875 280.308594 310.703125 280.296875 L 307.546875 280.296875 L 278.335938 280.25 L 278.335938 354.226562 L 287.300781 354.226562 L 287.902344 354.175781 L 298.863281 353.992188 C 301.105469 353.949219 303.105469 353.648438 304.945312 353.203125 C 308.300781 352.757812 311.261719 352.070312 313.90625 351.023438 C 318.605469 349.160156 322.480469 346.109375 326.304688 341.085938 L 329.277344 336.71875 C 330.445312 334.863281 331.636719 332.878906 332.851562 330.589844 L 339.027344 318.75 L 370.652344 260.796875 Z M 267.425781 276.953125 C 265.835938 276.953125 264.292969 277.328125 262.921875 277.929688 C 262.703125 278.027344 262.535156 278.140625 262.320312 278.253906 L 262.085938 278.394531 L 224.84375 298.730469 L 224.84375 335.789062 L 262.085938 356.125 L 262.320312 356.265625 C 262.535156 356.378906 262.703125 356.496094 262.921875 356.59375 C 264.292969 357.191406 265.835938 357.523438 267.425781 357.523438 C 270.527344 357.523438 273.300781 356.269531 275.320312 354.222656 L 275.320312 280.296875 C 273.300781 278.253906 270.527344 276.953125 267.425781 276.953125 Z M 257.582031 298.5 C 259.078125 298.382812 260.53125 298.640625 261.808594 299.382812 C 266.914062 302.332031 266.179688 311.363281 266.171875 317.261719 C 266.15625 323.15625 266.957031 332.1875 261.855469 335.136719 C 256.75 338.085938 249.222656 332.972656 244.117188 330.03125 C 240.285156 327.824219 234.722656 325.066406 232.183594 321.347656 C 231.335938 320.105469 230.839844 318.734375 230.835938 317.261719 C 230.804688 311.363281 239.011719 307.476562 244.117188 304.539062 C 247.945312 302.332031 253.09375 298.847656 257.582031 298.5 Z M 193.734375 299.707031 C 193.289062 299.707031 192.863281 299.976562 192.574219 300.359375 C 192.28125 300.738281 192.109375 301.214844 192.109375 301.796875 L 192.109375 332.722656 C 192.109375 333.304688 192.289062 333.828125 192.574219 334.210938 C 192.863281 334.589844 193.289062 334.8125 193.734375 334.8125 L 202.046875 334.8125 L 202.046875 299.707031 Z M 202.835938 299.707031 L 202.894531 334.8125 L 209.765625 334.8125 L 209.765625 299.707031 Z M 210.589844 299.707031 L 210.648438 334.8125 L 221.886719 334.859375 L 221.886719 299.707031 Z M 210.589844 299.707031 " fill-opacity="1" fill-rule="nonzero"/></g></svg>